# xmcd
#
# Track frame offsets:
#        182
#        19130
#        36680
#        54875
#        78915
#        95705
#        123315
#        141855
#        170667
#        188582
#        190020
#        190660
#        192245
#        193645
#        194300
#        196180
#        197315
#        198975
#        200370
#        201855
#        203210
#        204695
#        206685
#        208505
#        209570
#        211305
#        212450
#        213860
#        214630
#        215705
#        217765
#        218660
#        221190
#        222670
#        225130
#        226440
#        228920
#        230210
#        232640
#        233905
#        236430
#        237825
#        239590
#        241375
#        242460
#        244920
#        245760
#        246880
#        247675
#        248575
#        249545
#        250190
#        251030
#        251820
#        252665
#        253860
#        254860
#        255510
#        256495
#        256885
#        257282
#        258525
#        259615
#        260315
#        261220
#        262125
#
# Disc length: 3966 seconds
#
# Revision: 16
# Processed by: cddbd v1.5.2PL0 Copyright (c) Steve Scherf et al.
# Submitted via: ExactAudioCopy v1.0b1
#
DISCID=ef0f7c42
DTITLE=HIM / Greatest Lovesongs vol. 666
DYEAR=1997
DGENRE=Rock
TTITLE0=Your Sweet Six Six Six
TTITLE1=Wicked Game
TTITLE2=The Heartless
TTITLE3=Our Diabolikal Rapture
TTITLE4=It's All Tears (Drown In This Love)
TTITLE5=When Love And Death Embrace
TTITLE6=The Beginning of The End
TTITLE7=(don't fear) The Reaper
TTITLE8=For You
TTITLE9=silent
TTITLE10=silent
TTITLE11=silent
TTITLE12=silent
TTITLE13=silent
TTITLE14=silent
TTITLE15=silent
TTITLE16=silent
TTITLE17=silent
TTITLE18=silent
TTITLE19=silent
TTITLE20=silent
TTITLE21=silent
TTITLE22=silent
TTITLE23=silent
TTITLE24=silent
TTITLE25=silent
TTITLE26=silent
TTITLE27=silent
TTITLE28=silent
TTITLE29=silent
TTITLE30=silent
TTITLE31=silent
TTITLE32=silent
TTITLE33=silent
TTITLE34=silent
TTITLE35=silent
TTITLE36=silent
TTITLE37=silent
TTITLE38=silent
TTITLE39=silent
TTITLE40=silent
TTITLE41=silent
TTITLE42=silent
TTITLE43=silent
TTITLE44=silent
TTITLE45=silent
TTITLE46=silent
TTITLE47=silent
TTITLE48=silent
TTITLE49=silent
TTITLE50=silent
TTITLE51=silent
TTITLE52=silent
TTITLE53=silent
TTITLE54=silent
TTITLE55=silent
TTITLE56=silent
TTITLE57=silent
TTITLE58=silent
TTITLE59=silent
TTITLE60=silent
TTITLE61=silent
TTITLE62=silent
TTITLE63=silent
TTITLE64=silent
TTITLE65=The Heartless (666 Ways to Love: Prologue version) outro
EXTD=
EXTT0=
EXTT1=
EXTT2=
EXTT3=
EXTT4=
EXTT5=
EXTT6=
EXTT7=
EXTT8=
EXTT9=
EXTT10=
EXTT11=
EXTT12=
EXTT13=
EXTT14=
EXTT15=
EXTT16=
EXTT17=
EXTT18=
EXTT19=
EXTT20=
EXTT21=
EXTT22=
EXTT23=
EXTT24=
EXTT25=
EXTT26=
EXTT27=
EXTT28=
EXTT29=
EXTT30=
EXTT31=
EXTT32=
EXTT33=
EXTT34=
EXTT35=
EXTT36=
EXTT37=
EXTT38=
EXTT39=
EXTT40=
EXTT41=
EXTT42=
EXTT43=
EXTT44=
EXTT45=
EXTT46=
EXTT47=
EXTT48=
EXTT49=
EXTT50=
EXTT51=
EXTT52=
EXTT53=
EXTT54=
EXTT55=
EXTT56=
EXTT57=
EXTT58=
EXTT59=
EXTT60=
EXTT61=
EXTT62=
EXTT63=
EXTT64=
EXTT65=
PLAYORDER=
.
